# ProBuilder 5.2.2
# https://unity3d.com/unity/features/worldbuilding/probuilder
# 2024-03-27 오후 10:46:18

mtllib ./Stairs.mtl
o Stairs

g Stairs
v 1.222435 0.6542362 -1.34461
v 5.386384 0.6542362 -1.34461
v 1.222435 1.384197 -1.34461
v 5.386384 1.384197 -1.34461
v 5.069421 1.384197 -2.731755
v 1.222435 2.114157 -1.34461
v 5.069421 2.114157 -2.731755
v 4.166791 2.114157 -3.907721
v 1.222435 2.844117 -1.34461
v 4.166791 2.844117 -3.907721
v 2.815909 2.844117 -4.693476
v 1.222435 3.574077 -1.34461
v 2.815909 3.574077 -4.693476
v 1.222435 3.574077 -4.969397
v 5.069421 0.6542362 -2.731755
v 4.166791 0.6542362 -3.907721
v 2.815909 0.6542362 -4.693476
v 1.222435 0.6542362 -4.969397

vt 1.222435 0.6542362
vt 5.386384 0.6542362
vt 1.222435 1.384197
vt 5.386384 1.384197
vt -1.397749 -0.9517635
vt -5.481688 -1.764109
vt -4.900198 -3.062765
vt 1.606055 1.384197
vt 5.69549 1.384197
vt 1.606055 2.114157
vt 5.69549 2.114157
vt -2.258596 -0.491955
vt -4.686591 -3.782596
vt -3.282751 -4.258901
vt 1.804875 2.114157
vt 5.708562 2.114157
vt 1.804875 2.844117
vt 5.708562 2.844117
vt -3.268955 -0.8647063
vt -2.773602 -4.736837
vt -1.369761 -4.050161
vt 1.739404 2.844117
vt 5.448051 2.844117
vt 1.739404 3.574077
vt 5.448051 3.574077
vt -3.641305 -2.021995
vt -0.6676579 -4.238182
vt -0.08616722 -2.729156
vt 0.1109632 0.6542362
vt 1.533861 0.6542362
vt 0.1109632 1.384197
vt 1.533861 1.384197
vt -0.9196727 0.6542362
vt 0.5627696 0.6542362
vt -0.9196727 1.384197
vt 0.5627696 2.114157
vt -0.9196727 2.114157
vt -1.637036 0.6542362
vt -0.07425168 0.6542362
vt -1.637036 2.114157
vt -0.07425168 2.844117
vt -1.637036 2.844117
vt -1.973829 0.6542362
vt -0.3566428 0.6542362
vt -1.973829 2.844117
vt -0.3566428 3.574077
vt -1.973829 3.574077
vt -1.34461 0.6542362
vt -4.969397 0.6542362
vt -1.34461 3.574077
vt -4.969397 3.574077

vn 0 0 1
vn 0 1 0
vn 0.3392023 0 0.9407135
vn 0.6565872 0 0.7542502
vn 0.9029886 0 0.4296646
vn 0.9748737 0 -0.2227582
vn 0.9049026 0 -0.4256188
vn 0.8716145 0 -0.4901921
vn 0.6605017 0 -0.7508246
vn 0.7932621 0 -0.6088803
vn 0.3420908 0 -0.9396669
vn 0.5027918 0 -0.8644075
vn 0.1706178 0 -0.9853373
vn -1 0 0

usemtl ProBuilder_Default_URP
f 3/5/2 4/6/2 5/7/2
f 6/12/2 7/13/2 8/14/2
f 9/19/2 10/20/2 11/21/2
f 12/26/2 13/27/2 14/28/2
f 5/35/8 8/36/9 7/37/10
f 8/40/9 11/41/11 10/42/12
f 11/45/11 14/46/13 13/47/13
f 2/2/1 4/4/1 3/3/1
f 3/3/1 1/1/1 2/2/1
f 5/9/3 7/11/3 6/10/3
f 6/10/3 3/8/3 5/9/3
f 8/16/4 10/18/4 9/17/4
f 9/17/4 6/15/4 8/16/4
f 11/23/5 13/25/5 12/24/5
f 12/24/5 9/22/5 11/23/5
f 15/30/7 5/32/8 4/31/6
f 4/31/6 2/29/6 15/30/7
f 16/34/9 8/36/9 5/35/8
f 5/35/8 15/33/7 16/34/9
f 17/39/11 11/41/11 8/40/9
f 8/40/9 16/38/9 17/39/11
f 18/44/13 14/46/13 11/45/11
f 11/45/11 17/43/11 18/44/13
f 12/50/14 14/51/14 18/49/14
f 18/49/14 1/48/14 12/50/14

