# 3ds Max Wavefront OBJ Exporter v0.99 - (c)2007 guruware
# File Created: 01.10.2024 20:46:22

mtllib box_02_low.mtl

#
# object Box002
#

v  6.2235 41.3876 12.6569
v  12.5889 41.5609 6.3443
v  -12.6503 41.3339 6.3016
v  -6.3468 41.3615 12.6376
v  12.5966 41.3858 -6.2607
v  6.2819 41.3497 -12.5943
v  -6.3346 41.3110 -12.5983
v  -12.6381 41.2988 -6.2632
v  -12.6847 42.0401 -6.2895
v  -6.3705 42.0745 -12.6082
v  -6.7913 41.9532 -14.2372
v  -14.3067 42.0240 -6.7336
v  -6.3775 42.1683 12.6874
v  -12.6691 42.1542 6.3675
v  6.2935 42.1748 12.6666
v  12.6051 42.1793 6.3962
v  12.6089 42.1498 -6.2863
v  6.3050 42.1404 -12.6384
v  -14.0414 42.1977 6.7601
v  -6.8276 42.2015 14.1572
v  6.7053 42.2142 14.1491
v  14.1286 42.2124 6.8304
v  14.1157 42.1621 -6.7725
v  6.7708 42.1631 -14.2010
v  12.6367 42.5373 6.3355
v  12.6450 42.4883 -6.2500
v  12.7802 42.7001 6.2701
v  12.8344 42.6902 -6.1817
v  6.2490 42.5391 -12.6194
v  -6.3437 42.4834 -12.6369
v  6.1108 42.6481 -12.7240
v  -5.9878 42.6464 -12.7289
v  -6.3130 42.6459 -13.0526
v  -6.8191 42.6169 -14.7826
v  -6.9239 42.3665 -15.0400
v  -6.8783 42.3871 -14.6935
v  6.8972 42.5265 -14.6373
v  6.8020 42.6465 -14.6522
v  6.9366 42.2862 -14.7892
v  6.6952 42.6319 -14.8310
v  6.8759 42.1652 -15.0276
v  6.6600 42.4954 -15.0189
v  -6.9187 41.8975 -14.3848
v  -14.4893 41.9314 -6.8491
v  -7.0309 41.9172 -14.8088
v  -6.9134 38.9544 -14.3800
v  -14.4955 39.0967 -6.8452
v  -7.0034 38.5744 -14.7709
v  -6.8467 38.5878 -15.0366
v  -6.7703 42.4968 -15.0346
v  6.8573 38.6028 -15.0150
v  6.8301 41.9979 -14.4236
v  6.8421 39.1009 -14.4536
v  6.9658 38.5752 -14.8558
v  14.4159 42.0003 -6.8291
v  14.7572 42.5680 -6.9347
v  14.7989 42.6769 -6.8001
v  14.3773 39.1006 -6.8425
v  14.8813 42.3226 -6.9762
v  14.9218 38.7767 -6.9565
v  15.0338 42.3021 -6.8087
v  15.0193 42.4363 -6.7146
v  15.0416 38.8057 -6.7874
v  15.0382 38.6665 -6.7086
v  14.8597 38.5922 -6.9557
v  14.6492 42.6399 6.9693
v  14.7624 42.7224 6.8034
v  15.0161 42.4722 6.8751
v  14.8126 42.4429 7.0210
v  14.9148 42.2571 7.0596
v  15.0294 42.2637 6.9601
v  14.4147 42.0679 6.9050
v  6.8525 41.9719 14.4588
v  6.8335 39.0707 14.5016
v  14.3887 39.1810 6.9219
v  14.9219 38.6247 7.0309
v  15.0362 38.7723 6.8630
v  -6.3634 42.4860 12.6665
v  6.2455 42.5293 12.6755
v  -6.3885 42.5988 12.7665
v  6.2354 42.7047 12.9680
v  -6.2130 42.7025 12.8819
v  6.6986 42.7262 14.6919
v  6.9159 42.5502 14.7852
v  6.9444 42.4748 14.9272
v  6.5865 42.7280 14.8980
v  6.6978 42.5766 15.1014
v  6.9235 38.6380 14.9147
v  6.8006 38.7853 15.1113
v  -7.0038 42.5926 14.8529
v  -6.7265 42.7005 14.8810
v  -6.7836 42.3823 15.1006
v  -6.9127 42.0338 14.5060
v  -7.0635 42.0124 14.9804
v  -14.9542 42.3695 -6.9512
v  -12.6890 42.4166 -6.2773
v  -14.8371 42.6436 -6.7488
v  -12.8860 42.6147 -6.0995
v  -12.7000 42.4728 6.3280
v  -12.8997 42.6847 5.8955
v  -14.4552 41.9129 6.9113
v  -6.9306 41.9689 15.0984
v  -6.9290 39.1955 14.4897
v  -7.0448 38.5811 15.0121
v  -6.9758 38.6342 15.0954
v  -13.0432 42.6095 6.4272
v  -13.1972 42.6854 6.2948
v  -14.5847 42.6839 6.6718
v  -14.4967 42.5907 6.8938
v  -14.8384 42.6809 6.6803
v  -14.7476 42.5064 6.9681
v  -14.9717 42.5936 6.8179
v  -15.1183 42.3692 -6.7783
v  -15.0914 42.4808 6.7750
v  -14.5189 39.0819 6.9122
v  -14.9268 41.9727 7.0080
v  -14.9751 38.7311 7.0230
v  -15.1142 42.0406 6.8830
v  -15.1095 38.7822 6.9085
v  -14.8021 38.6289 -6.9311
v  -15.1076 38.7031 -6.8021
v  6.7455 38.4319 -14.8199
v  -6.8780 38.4235 -14.8917
v  -6.3569 38.5501 -12.6275
v  -6.3654 38.9127 -12.6131
v  -6.3068 38.4288 -12.7849
v  14.3157 38.9807 -6.8040
v  6.7913 38.9428 -14.2621
v  12.6001 38.9643 -6.2951
v  6.3157 38.9493 -12.6080
v  6.2786 38.5565 -12.6255
v  6.2498 38.4367 -13.0421
v  6.0595 38.4430 -12.7491
v  -12.6733 38.9175 -6.2883
v  -14.2572 38.9366 -6.7731
v  -12.6948 38.6236 -6.2870
v  -14.9006 38.4288 -6.8260
v  -12.6872 38.4286 -6.1606
v  -14.8863 38.4570 6.6884
v  -14.6761 38.5055 6.9062
v  -12.6996 38.4607 6.2851
v  -6.8568 39.0050 14.2643
v  -14.3363 38.9644 6.8627
v  -6.4143 38.9993 12.6813
v  -6.3644 38.7256 12.6933
v  -12.6930 38.9607 6.3747
v  -6.8396 38.4878 14.9178
v  6.4569 38.5140 14.8066
v  -6.1658 38.4876 12.9353
v  6.7102 38.5090 14.6481
v  6.2946 38.6444 12.7452
v  6.7934 39.0098 14.3624
v  6.0728 38.5005 12.8393
v  14.1910 39.0138 6.8294
v  14.8572 38.5153 6.8560
v  12.5941 38.6609 6.2780
v  12.7212 38.5002 6.2970
v  12.5927 39.0037 6.3904
v  14.8607 38.4779 -6.8511
v  12.6210 38.6521 -6.2773
v  12.7266 38.4697 -6.1384
# 161 vertices

vn -0.2785 0.6556 -0.7019
vn -0.7110 0.6439 -0.2826
vn 0.7051 0.6518 -0.2792
vn 0.2870 0.6563 -0.6978
vn -0.7123 0.6419 0.2838
vn -0.2908 0.6540 0.6984
vn 0.2864 0.6420 0.7112
vn 0.6960 0.6589 0.2854
vn 0.8848 0.4583 -0.0845
vn -0.1067 0.4770 0.8724
vn -0.7259 0.6691 0.1591
vn 0.1237 0.5546 -0.8229
vn -0.0829 0.4258 -0.9010
vn 0.8683 0.4944 0.0409
vn 0.0569 0.4769 -0.8771
vn -0.8592 0.5094 0.0488
vn -0.8786 0.4743 -0.0550
vn 0.0858 0.4614 0.8830
vn 0.0737 0.5436 0.8361
vn -0.7965 0.6014 -0.0630
vn 0.8528 0.5150 -0.0863
vn -0.0543 0.5668 0.8221
vn -0.0424 0.5862 -0.8090
vn 0.8657 0.4995 0.0328
vn -0.7598 0.4069 0.5071
vn -0.7562 0.4012 -0.5169
vn -0.3868 0.8513 0.3545
vn -0.3748 0.8548 -0.3589
vn 0.5167 0.4332 0.7385
vn -0.5592 0.4378 0.7039
vn 0.1717 0.9154 0.3642
vn -0.0645 0.8680 0.4923
vn -0.3803 0.9149 0.1356
vn -0.6328 0.7729 -0.0472
vn -0.6829 0.2835 -0.6732
vn -0.5906 0.7985 0.1167
vn 0.9185 0.3891 -0.0706
vn 0.5194 0.8478 -0.1074
vn 0.9694 0.2086 -0.1295
vn 0.3529 0.8368 -0.4187
vn 0.6082 0.1356 -0.7821
vn 0.2875 0.4749 -0.8318
vn -0.7805 0.6186 -0.0903
vn -0.0273 0.3040 -0.9523
vn -0.9947 0.0822 -0.0618
vn -0.9752 -0.2206 0.0149
vn -0.0799 -0.1681 -0.9825
vn -0.9415 -0.3284 -0.0760
vn -0.4292 -0.2912 -0.8550
vn -0.1952 0.5638 -0.8025
vn 0.4148 -0.3847 -0.8246
vn 0.9837 0.1551 -0.0905
vn 0.9856 -0.1430 -0.0897
vn 0.8822 -0.4414 -0.1640
vn 0.0626 0.1222 -0.9905
vn 0.1228 0.4890 -0.8636
vn 0.3623 0.8550 -0.3712
vn 0.2004 -0.1711 -0.9647
vn 0.3165 0.1692 -0.9334
vn 0.4116 -0.0874 -0.9072
vn 0.9060 0.1684 -0.3884
vn 0.8818 0.4270 -0.2002
vn 0.9386 -0.1020 -0.3295
vn 0.9126 -0.3752 -0.1625
vn 0.2400 -0.3600 -0.9015
vn -0.0366 0.5835 0.8113
vn 0.3399 0.8999 0.2731
vn 0.8168 0.4500 0.3610
vn 0.1111 0.3039 0.9462
vn 0.2488 0.1613 0.9550
vn 0.8838 0.1191 0.4525
vn 0.0483 0.1661 0.9849
vn 0.9720 0.2037 0.1170
vn 0.9792 -0.1911 0.0687
vn 0.1230 -0.2102 0.9699
vn 0.3939 -0.4986 0.7722
vn 0.9449 -0.2390 0.2236
vn -0.5129 0.2546 -0.8198
vn 0.4862 0.4494 -0.7494
vn -0.6111 0.5978 -0.5189
vn 0.4328 0.8551 -0.2854
vn -0.1466 0.9338 -0.3265
vn 0.3990 0.9169 0.0114
vn 0.8594 0.5106 -0.0282
vn 0.8793 0.3113 0.3604
vn 0.1942 0.9306 0.3104
vn 0.3391 0.4848 0.8062
vn 0.7072 -0.6267 0.3273
vn 0.3993 -0.3325 0.8544
vn -0.7563 0.5369 0.3738
vn -0.1879 0.8883 0.4191
vn -0.3809 0.3613 0.8511
vn -0.9952 0.0939 0.0279
vn -0.9494 0.0873 0.3016
vn -0.2716 0.3061 -0.9125
vn 0.7304 0.4052 -0.5498
vn -0.2039 0.8633 -0.4616
vn 0.3628 0.9039 -0.2264
vn 0.7390 0.4457 0.5052
vn 0.3953 0.9177 0.0406
vn -0.1189 0.1917 0.9742
vn -0.3731 0.0595 0.9259
vn -0.9771 -0.1659 0.1330
vn -0.7802 -0.5589 0.2808
vn -0.3479 -0.3543 0.8680
vn 0.3427 0.6215 0.7045
vn 0.1123 0.9747 0.1933
vn 0.0170 0.9831 0.1824
vn 0.1436 0.6003 0.7868
vn -0.2257 0.9517 0.2079
vn -0.0646 0.4050 0.9120
vn -0.4915 0.7018 0.5158
vn -0.8740 0.3531 -0.3338
vn -0.8431 0.3898 0.3704
vn -0.0934 -0.1654 0.9818
vn -0.2067 0.0651 0.9762
vn -0.3212 -0.4313 0.8431
vn -0.8577 0.0977 0.5047
vn -0.8749 -0.2947 0.3844
vn -0.0264 -0.2454 -0.9691
vn -0.8337 -0.2506 -0.4921
vn 0.2647 -0.9322 -0.2468
vn -0.4659 -0.8060 -0.3651
vn -0.9293 -0.2436 0.2775
vn -0.5796 -0.7989 0.1609
vn -0.4831 -0.8654 0.1333
vn -0.0246 -0.4365 -0.8994
vn 0.8817 -0.4714 0.0209
vn -0.1566 -0.8175 -0.5542
vn 0.5446 -0.8234 0.1598
vn 0.8003 -0.5232 0.2928
vn 0.3263 -0.9385 0.1133
vn 0.1436 -0.9830 0.1142
vn 0.1629 -0.8078 -0.5665
vn 0.2910 -0.0109 -0.9567
vn 0.2789 -0.2919 -0.9149
vn -0.4349 -0.8987 -0.0566
vn 0.1192 -0.9101 -0.3968
vn -0.4419 -0.8762 0.1924
vn 0.0680 -0.6809 0.7292
vn 0.1681 -0.8147 0.5550
vn -0.8628 -0.5053 -0.0183
vn 0.0358 -0.5715 0.8198
vn -0.5262 -0.8380 -0.1441
vn -0.8581 -0.4313 -0.2787
vn 0.1587 -0.8261 0.5407
vn -0.1989 -0.9522 0.2318
vn 0.0616 -0.9294 0.3638
vn -0.3459 -0.9309 -0.1175
vn 0.3387 -0.9408 -0.0163
vn 0.3623 -0.9321 0.0007
vn -0.4800 -0.7703 0.4198
vn 0.2664 -0.9628 -0.0455
vn -0.0404 -0.5101 0.8592
vn 0.3586 -0.8998 0.2485
vn -0.5978 -0.4715 0.6484
vn -0.4251 -0.7291 0.5364
vn -0.1272 -0.8663 0.4831
vn 0.3356 -0.8380 -0.4303
vn -0.4883 -0.4468 -0.7496
vn -0.4620 -0.8493 -0.2556
# 161 vertex normals

vt 0.3328 0.3255 0.0000
vt 0.4778 0.3194 0.0000
vt 0.1967 0.6239 0.0000
vt 0.1873 0.4809 0.0000
vt 0.6301 0.4684 0.0000
vt 0.6367 0.6133 0.0000
vt 0.4954 0.7678 0.0000
vt 0.3521 0.7708 0.0000
vt 0.3456 0.7806 0.0000
vt 0.4999 0.7796 0.0000
vt 0.5168 0.8081 0.0000
vt 0.3281 0.8080 0.0000
vt 0.1750 0.4758 0.0000
vt 0.1847 0.6298 0.0000
vt 0.3278 0.3140 0.0000
vt 0.4824 0.3102 0.0000
vt 0.6410 0.4633 0.0000
vt 0.6489 0.6179 0.0000
vt 0.1612 0.6463 0.0000
vt 0.1475 0.4631 0.0000
vt 0.3124 0.2881 0.0000
vt 0.4985 0.2828 0.0000
vt 0.6683 0.4489 0.0000
vt 0.6778 0.6332 0.0000
vt 0.4878 0.3089 0.0000
vt 0.6426 0.4586 0.0000
vt 0.4913 0.3083 0.0000
vt 0.6437 0.4545 0.0000
vt 0.6504 0.6237 0.0000
vt 0.5058 0.7808 0.0000
vt 0.6498 0.6272 0.0000
vt 0.5120 0.7778 0.0000
vt 0.5116 0.7842 0.0000
vt 0.5240 0.8063 0.0000
vt 0.5258 0.8100 0.0000
vt 0.5223 0.8088 0.0000
vt 0.6779 0.6376 0.0000
vt 0.6760 0.6384 0.0000
vt 0.6810 0.6397 0.0000
vt 0.6763 0.6417 0.0000
vt 0.6825 0.6437 0.0000
vt 0.6777 0.6445 0.0000
vt 0.5184 0.8119 0.0000
vt 0.3258 0.8126 0.0000
vt 0.5245 0.8156 0.0000
vt 0.5366 0.8634 0.0000
vt 0.3049 0.8586 0.0000
vt 0.5446 0.8627 0.0000
vt 0.5477 0.8588 0.0000
vt 0.5273 0.8082 0.0000
vt 0.7317 0.6668 0.0000
vt 0.6830 0.6364 0.0000
vt 0.7319 0.6563 0.0000
vt 0.7339 0.6649 0.0000
vt 0.6740 0.4450 0.0000
vt 0.6703 0.4424 0.0000
vt 0.6684 0.4413 0.0000
vt 0.7253 0.4276 0.0000
vt 0.6729 0.4406 0.0000
vt 0.7212 0.4229 0.0000
vt 0.6732 0.4373 0.0000
vt 0.6706 0.4373 0.0000
vt 0.7179 0.4205 0.0000
vt 0.7180 0.4181 0.0000
vt 0.7225 0.4200 0.0000
vt 0.5053 0.2825 0.0000
vt 0.5071 0.2844 0.0000
vt 0.5097 0.2801 0.0000
vt 0.5071 0.2795 0.0000
vt 0.5072 0.2764 0.0000
vt 0.5091 0.2762 0.0000
vt 0.5027 0.2771 0.0000
vt 0.3086 0.2803 0.0000
vt 0.2884 0.2308 0.0000
vt 0.5230 0.2289 0.0000
vt 0.5326 0.2292 0.0000
vt 0.5342 0.2328 0.0000
vt 0.1733 0.4716 0.0000
vt 0.3226 0.3127 0.0000
vt 0.1723 0.4699 0.0000
vt 0.3182 0.3110 0.0000
vt 0.1728 0.4661 0.0000
vt 0.3056 0.2897 0.0000
vt 0.3059 0.2851 0.0000
vt 0.3044 0.2844 0.0000
vt 0.3021 0.2894 0.0000
vt 0.3009 0.2857 0.0000
vt 0.2807 0.2293 0.0000
vt 0.2789 0.2323 0.0000
vt 0.1433 0.4550 0.0000
vt 0.1471 0.4528 0.0000
vt 0.1421 0.4505 0.0000
vt 0.1404 0.4590 0.0000
vt 0.1361 0.4522 0.0000
vt 0.3220 0.8104 0.0000
vt 0.3403 0.7811 0.0000
vt 0.3224 0.8050 0.0000
vt 0.3346 0.7803 0.0000
vt 0.1838 0.6346 0.0000
vt 0.1870 0.6431 0.0000
vt 0.1523 0.6527 0.0000
vt 0.1356 0.4493 0.0000
vt 0.0927 0.4451 0.0000
vt 0.0915 0.4338 0.0000
vt 0.0927 0.4327 0.0000
vt 0.1795 0.6396 0.0000
vt 0.1803 0.6423 0.0000
vt 0.1633 0.6540 0.0000
vt 0.1604 0.6524 0.0000
vt 0.1611 0.6564 0.0000
vt 0.1576 0.6552 0.0000
vt 0.1585 0.6570 0.0000
vt 0.3191 0.8091 0.0000
vt 0.1579 0.6594 0.0000
vt 0.1048 0.6766 0.0000
vt 0.1511 0.6593 0.0000
vt 0.1070 0.6821 0.0000
vt 0.1521 0.6620 0.0000
vt 0.1095 0.6840 0.0000
vt 0.2973 0.8612 0.0000
vt 0.2947 0.8563 0.0000
vt 0.7334 0.6701 0.0000
vt 0.5491 0.8615 0.0000
vt 0.5508 0.8883 0.0000
vt 0.5306 0.8897 0.0000
vt 0.5587 0.8863 0.0000
vt 0.7278 0.4263 0.0000
vt 0.7362 0.6565 0.0000
vt 0.7556 0.4292 0.0000
vt 0.7603 0.6508 0.0000
vt 0.7600 0.6728 0.0000
vt 0.7554 0.6813 0.0000
vt 0.7569 0.6867 0.0000
vt 0.3108 0.8891 0.0000
vt 0.3029 0.8643 0.0000
vt 0.2938 0.8892 0.0000
vt 0.2921 0.8599 0.0000
vt 0.2823 0.8902 0.0000
vt 0.1090 0.6912 0.0000
vt 0.1050 0.6877 0.0000
vt 0.0809 0.7010 0.0000
vt 0.0875 0.4453 0.0000
vt 0.1014 0.6770 0.0000
vt 0.0651 0.4517 0.0000
vt 0.0645 0.4376 0.0000
vt 0.0759 0.6737 0.0000
vt 0.0916 0.4293 0.0000
vt 0.2724 0.2315 0.0000
vt 0.0670 0.4184 0.0000
vt 0.2776 0.2274 0.0000
vt 0.2871 0.2033 0.0000
vt 0.2887 0.2285 0.0000
vt 0.2679 0.2061 0.0000
vt 0.5245 0.2243 0.0000
vt 0.5360 0.2288 0.0000
vt 0.5457 0.2028 0.0000
vt 0.5465 0.2061 0.0000
vt 0.5240 0.2023 0.0000
vt 0.7224 0.4178 0.0000
vt 0.7543 0.4095 0.0000
vt 0.7487 0.4066 0.0000
# 161 texture coords

o Box002
g Box002
usemtl wire_057008136
s off
f 1/1/1 2/2/2 3/3/3 4/4/4 
f 5/5/5 6/6/6 7/7/7 8/8/8 
f 3/3/3 2/2/2 5/5/5 8/8/8 
f 9/9/9 8/8/8 7/7/7 10/10/10 
f 9/9/9 10/10/10 11/11/11 12/12/12 
f 13/13/13 4/4/4 3/3/3 14/14/14 
f 15/15/15 16/16/16 2/2/2 1/1/1 
f 17/17/17 18/18/18 6/6/6 5/5/5 
f 13/13/13 14/14/14 19/19/19 20/20/20 
f 16/16/16 15/15/15 21/21/21 22/22/22 
f 18/18/18 17/17/17 23/23/23 24/24/24 
f 5/5/5 2/2/2 16/16/16 17/17/17 
f 1/1/1 4/4/4 13/13/13 15/15/15 
f 7/7/7 6/6/6 18/18/18 10/10/10 
f 3/3/3 8/8/8 9/9/9 14/14/14 
f 17/17/17 16/16/16 25/25/25 26/26/26 
f 26/26/26 25/25/25 27/27/27 28/28/28 
f 10/10/10 18/18/18 29/29/29 30/30/30 
f 30/30/30 29/29/29 31/31/31 32/32/32 
f 30/30/30 32/32/32 33/33/33 
f 30/30/30 33/33/33 34/34/34 35/35/35 36/36/36 
f 29/29/29 18/18/18 24/24/24 37/37/37 
f 31/31/31 29/29/29 37/37/37 38/38/38 
f 38/38/38 37/37/37 39/39/39 40/40/40 
f 40/40/40 39/39/39 41/41/41 42/42/42 
f 31/31/31 38/38/38 34/34/34 32/32/32 
f 32/32/32 34/34/34 33/33/33 
f 38/38/38 40/40/40 34/34/34 
f 12/12/12 11/11/11 43/43/43 44/44/44 
f 10/10/10 30/30/30 36/36/36 11/11/11 
f 11/11/11 36/36/36 45/45/45 43/43/43 
f 36/36/36 35/35/35 45/45/45 
f 44/44/44 43/43/43 46/46/46 47/47/47 
f 46/46/46 43/43/43 45/45/45 48/48/48 
f 48/48/48 45/45/45 35/35/35 49/49/49 
f 35/35/35 34/34/34 50/50/50 
f 34/34/34 40/40/40 42/42/42 50/50/50 
f 50/50/50 42/42/42 51/51/51 49/49/49 
f 42/42/42 41/41/41 51/51/51 
f 37/37/37 24/24/24 52/52/52 39/39/39 
f 39/39/39 52/52/52 53/53/53 54/54/54 
f 39/39/39 54/54/54 51/51/51 41/41/41 
f 24/24/24 23/23/23 55/55/55 52/52/52 
f 23/23/23 17/17/17 26/26/26 56/56/56 
f 56/56/56 26/26/26 28/28/28 57/57/57 
f 52/52/52 55/55/55 58/58/58 53/53/53 
f 58/58/58 55/55/55 59/59/59 60/60/60 
f 59/59/59 55/55/55 23/23/23 56/56/56 
f 59/59/59 56/56/56 57/57/57 61/61/61 
f 61/61/61 57/57/57 62/62/62 
f 60/60/60 59/59/59 61/61/61 63/63/63 
f 60/60/60 63/63/63 64/64/64 65/65/65 
f 25/25/25 16/16/16 22/22/22 66/66/66 
f 25/25/25 66/66/66 67/67/67 27/27/27 
f 27/27/27 67/67/67 57/57/57 28/28/28 
f 57/57/57 67/67/67 68/68/68 62/62/62 
f 68/68/68 66/66/66 69/69/69 
f 68/68/68 69/69/69 70/70/70 71/71/71 
f 68/68/68 67/67/67 66/66/66 
f 66/66/66 22/22/22 72/72/72 69/69/69 
f 22/22/22 21/21/21 73/73/73 72/72/72 
f 69/69/69 72/72/72 70/70/70 
f 72/72/72 73/73/73 74/74/74 75/75/75 
f 71/71/71 70/70/70 76/76/76 77/77/77 
f 70/70/70 72/72/72 75/75/75 76/76/76 
f 62/62/62 68/68/68 71/71/71 61/61/61 
f 61/61/61 71/71/71 77/77/77 63/63/63 
f 63/63/63 77/77/77 64/64/64 
f 15/15/15 13/13/13 78/78/78 79/79/79 
f 79/79/79 78/78/78 80/80/80 81/81/81 
f 80/80/80 82/82/82 81/81/81 
f 15/15/15 79/79/79 21/21/21 
f 79/79/79 81/81/81 83/83/83 84/84/84 
f 21/21/21 84/84/84 73/73/73 
f 84/84/84 83/83/83 85/85/85 
f 85/85/85 83/83/83 86/86/86 87/87/87 
f 73/73/73 85/85/85 88/88/88 74/74/74 
f 85/85/85 89/89/89 88/88/88 
f 78/78/78 13/13/13 20/20/20 90/90/90 
f 80/80/80 78/78/78 90/90/90 
f 82/82/82 80/80/80 90/90/90 91/91/91 
f 81/81/81 82/82/82 91/91/91 83/83/83 
f 83/83/83 91/91/91 86/86/86 
f 86/86/86 91/91/91 92/92/92 87/87/87 
f 90/90/90 20/20/20 93/93/93 94/94/94 
f 9/9/9 12/12/12 95/95/95 96/96/96 
f 96/96/96 95/95/95 97/97/97 98/98/98 
f 14/14/14 9/9/9 96/96/96 99/99/99 
f 99/99/99 96/96/96 98/98/98 100/100/100 
f 20/20/20 19/19/19 101/101/101 93/93/93 
f 87/87/87 92/92/92 102/102/102 89/89/89 
f 94/94/94 93/93/93 103/103/103 104/104/104 
f 102/102/102 105/105/105 89/89/89 
f 92/92/92 91/91/91 90/90/90 94/94/94 
f 94/94/94 102/102/102 92/92/92 
f 102/102/102 94/94/94 104/104/104 105/105/105 
f 79/79/79 84/84/84 21/21/21 
f 84/84/84 85/85/85 73/73/73 
f 85/85/85 87/87/87 89/89/89 
f 99/99/99 100/100/100 106/106/106 
f 100/100/100 107/107/107 106/106/106 
f 14/14/14 99/99/99 19/19/19 
f 106/106/106 107/107/107 108/108/108 109/109/109 
f 19/19/19 109/109/109 101/101/101 
f 109/109/109 108/108/108 110/110/110 111/111/111 
f 111/111/111 110/110/110 112/112/112 
f 110/110/110 108/108/108 107/107/107 97/97/97 
f 107/107/107 100/100/100 98/98/98 97/97/97 
f 110/110/110 97/97/97 113/113/113 112/112/112 
f 112/112/112 113/113/113 114/114/114 
f 93/93/93 101/101/101 115/115/115 103/103/103 
f 101/101/101 109/109/109 111/111/111 116/116/116 
f 115/115/115 101/101/101 116/116/116 117/117/117 
f 116/116/116 111/111/111 112/112/112 118/118/118 
f 117/117/117 116/116/116 118/118/118 119/119/119 
f 118/118/118 112/112/112 114/114/114 
f 113/113/113 97/97/97 95/95/95 
f 95/95/95 44/44/44 120/120/120 
f 120/120/120 44/44/44 47/47/47 
f 114/114/114 113/113/113 121/121/121 118/118/118 
f 113/113/113 95/95/95 120/120/120 121/121/121 
f 118/118/118 121/121/121 119/119/119 
f 49/49/49 51/51/51 122/122/122 123/123/123 
f 49/49/49 123/123/123 48/48/48 
f 46/46/46 48/48/48 124/124/124 125/125/125 
f 48/48/48 123/123/123 126/126/126 124/124/124 
f 35/35/35 50/50/50 49/49/49 
f 122/122/122 51/51/51 54/54/54 
f 53/53/53 58/58/58 127/127/127 128/128/128 
f 128/128/128 127/127/127 129/129/129 130/130/130 
f 53/53/53 128/128/128 54/54/54 
f 128/128/128 130/130/130 131/131/131 54/54/54 
f 54/54/54 131/131/131 132/132/132 122/122/122 
f 132/132/132 131/131/131 133/133/133 
f 123/123/123 122/122/122 132/132/132 126/126/126 
f 132/132/132 133/133/133 126/126/126 
f 47/47/47 46/46/46 134/134/134 135/135/135 
f 47/47/47 135/135/135 120/120/120 
f 135/135/135 134/134/134 136/136/136 120/120/120 
f 121/121/121 120/120/120 137/137/137 
f 120/120/120 136/136/136 138/138/138 137/137/137 
f 117/117/117 119/119/119 139/139/139 140/140/140 
f 119/119/119 121/121/121 139/139/139 
f 140/140/140 139/139/139 141/141/141 
f 139/139/139 121/121/121 137/137/137 138/138/138 141/141/141 
f 103/103/103 142/142/142 104/104/104 
f 103/103/103 115/115/115 143/143/143 142/142/142 
f 115/115/115 117/117/117 143/143/143 
f 104/104/104 142/142/142 144/144/144 145/145/145 
f 142/142/142 143/143/143 146/146/146 144/144/144 
f 143/143/143 117/117/117 141/141/141 146/146/146 
f 141/141/141 117/117/117 140/140/140 
f 89/89/89 105/105/105 147/147/147 148/148/148 
f 105/105/105 104/104/104 147/147/147 
f 147/147/147 104/104/104 145/145/145 149/149/149 
f 89/89/89 148/148/148 150/150/150 88/88/88 
f 74/74/74 88/88/88 151/151/151 152/152/152 
f 150/150/150 148/148/148 153/153/153 151/151/151 
f 88/88/88 150/150/150 151/151/151 
f 148/148/148 147/147/147 149/149/149 153/153/153 
f 75/75/75 74/74/74 152/152/152 154/154/154 
f 77/77/77 76/76/76 155/155/155 
f 76/76/76 75/75/75 154/154/154 
f 155/155/155 76/76/76 156/156/156 157/157/157 
f 76/76/76 154/154/154 158/158/158 156/156/156 
f 158/158/158 154/154/154 151/151/151 
f 64/64/64 77/77/77 155/155/155 159/159/159 
f 65/65/65 64/64/64 159/159/159 
f 58/58/58 60/60/60 127/127/127 
f 60/60/60 65/65/65 160/160/160 127/127/127 
f 65/65/65 159/159/159 161/161/161 160/160/160 
f 160/160/160 129/129/129 127/127/127 
f 161/161/161 159/159/159 155/155/155 157/157/157 
f 157/157/157 156/156/156 160/160/160 161/161/161 
f 19/19/19 106/106/106 109/109/109 
f 99/99/99 106/106/106 19/19/19 
f 95/95/95 12/12/12 44/44/44 
f 46/46/46 125/125/125 134/134/134 
f 154/154/154 152/152/152 151/151/151 
# 119 polygons - 60 triangles

